<svg id="Layer_1" data-name="Layer 1" xmlns="http://www.w3.org/2000/svg" viewBox="0 0 328.32 328.32"><defs><style>.cls-1{fill:#231f20;}.cls-2{fill:#fff;}.cls-3{fill:#00c49f;}</style></defs><rect class="cls-1" width="328.32" height="328.32" rx="5.21"/><path class="cls-2" d="M312.21,279.86v69.5a3.18,3.18,0,0,1-3.18,3.18H290.1a3.18,3.18,0,0,1-3.18-3.18V305.15a3.17,3.17,0,0,0-3.17-3.18h-69.5a3.18,3.18,0,0,0-3.18,3.18v44.21a3.18,3.18,0,0,1-3.18,3.18H189a3.18,3.18,0,0,1-3.18-3.18v-69.5a3.18,3.18,0,0,1,3.18-3.18H309A3.18,3.18,0,0,1,312.21,279.86Z" transform="translate(-135.41 -251.59)"/><rect class="cls-2" x="252.66" y="25.09" width="25.29" height="75.86" rx="3.18"/><path class="cls-3" d="M160.5,381v69.5a3.17,3.17,0,0,0,3.17,3.18h69.5a3.18,3.18,0,0,0,3.18-3.18V381a3.18,3.18,0,0,0-3.18-3.18h-69.5A3.18,3.18,0,0,0,160.5,381Zm47.39,47.4H189a3.18,3.18,0,0,1-3.18-3.18V406.29a3.18,3.18,0,0,1,3.18-3.18h18.93a3.18,3.18,0,0,1,3.18,3.18v18.93A3.19,3.19,0,0,1,207.89,428.4Z" transform="translate(-135.41 -251.59)"/><path class="cls-3" d="M261.64,381v69.5a3.18,3.18,0,0,0,3.18,3.18h69.5a3.17,3.17,0,0,0,3.17-3.18V381a3.18,3.18,0,0,0-3.17-3.18h-69.5A3.18,3.18,0,0,0,261.64,381ZM309,428.4H290.1a3.19,3.19,0,0,1-3.18-3.18V406.29a3.18,3.18,0,0,1,3.18-3.18H309a3.18,3.18,0,0,1,3.18,3.18v18.93A3.18,3.18,0,0,1,309,428.4Z" transform="translate(-135.41 -251.59)"/><path class="cls-3" d="M362.78,381v69.5a3.18,3.18,0,0,0,3.18,3.18h69.5a3.18,3.18,0,0,0,3.18-3.18V381a3.19,3.19,0,0,0-3.18-3.18H366A3.18,3.18,0,0,0,362.78,381Zm47.39,47.4H391.24a3.18,3.18,0,0,1-3.17-3.18V406.29a3.17,3.17,0,0,1,3.17-3.18h18.93a3.18,3.18,0,0,1,3.18,3.18v18.93A3.18,3.18,0,0,1,410.17,428.4Z" transform="translate(-135.41 -251.59)"/><path class="cls-2" d="M413.35,482.14v69.5a3.18,3.18,0,0,1-3.18,3.18H290.1a3.18,3.18,0,0,1-3.18-3.18v-69.5A3.18,3.18,0,0,1,290.1,479H309a3.17,3.17,0,0,1,3.18,3.17v44.22a3.18,3.18,0,0,0,3.18,3.18h69.5a3.19,3.19,0,0,0,3.18-3.18V482.14a3.17,3.17,0,0,1,3.17-3.17h18.93A3.17,3.17,0,0,1,413.35,482.14Z" transform="translate(-135.41 -251.59)"/><rect class="cls-2" x="50.38" y="227.37" width="25.29" height="75.86" rx="3.18"/></svg>