<?xml version="1.0" encoding="utf-8"?>
<!-- Generator: Adobe Illustrator 25.0.0, SVG Export Plug-In . SVG Version: 6.00 Build 0)  -->
<svg version="1.1" id="Layer_1" xmlns="http://www.w3.org/2000/svg" xmlns:xlink="http://www.w3.org/1999/xlink" x="0px" y="0px"
	 viewBox="0 0 328.3 328.3" style="enable-background:new 0 0 328.3 328.3;" xml:space="preserve">
<style type="text/css">
	.st0{fill:#231F20;}
	.st1{fill:#FFFFFF;}
	.st2{fill:#2693E9;}
</style>
<path class="st0" d="M5.2,0h317.9c2.9,0,5.2,2.3,5.2,5.2v317.9c0,2.9-2.3,5.2-5.2,5.2H5.2c-2.9,0-5.2-2.3-5.2-5.2V5.2
	C0,2.3,2.3,0,5.2,0z"/>
<path class="st1" d="M176.8,28.3v69.5c0,1.8-1.4,3.2-3.2,3.2h-18.9c-1.8,0-3.2-1.4-3.2-3.2V53.6c0-1.8-1.4-3.2-3.2-3.2c0,0,0,0,0,0
	H78.8c-1.8,0-3.2,1.4-3.2,3.2v44.2c0,1.8-1.4,3.2-3.2,3.2H53.6c-1.8,0-3.2-1.4-3.2-3.2V28.3c0-1.8,1.4-3.2,3.2-3.2h120
	C175.3,25.1,176.8,26.5,176.8,28.3C176.8,28.2,176.8,28.3,176.8,28.3z"/>
<path class="st1" d="M255.8,25.1h18.9c1.8,0,3.2,1.4,3.2,3.2v69.5c0,1.8-1.4,3.2-3.2,3.2h-18.9c-1.8,0-3.2-1.4-3.2-3.2V28.3
	C252.7,26.5,254.1,25.1,255.8,25.1z"/>
<path class="st2" d="M25.1,129.4v69.5c0,1.8,1.4,3.2,3.2,3.2c0,0,0,0,0,0h69.5c1.8,0,3.2-1.4,3.2-3.2v-69.5c0-1.8-1.4-3.2-3.2-3.2
	H28.3C26.5,126.2,25.1,127.7,25.1,129.4z M72.5,176.8H53.6c-1.8,0-3.2-1.4-3.2-3.2v-18.9c0-1.8,1.4-3.2,3.2-3.2h18.9
	c1.8,0,3.2,1.4,3.2,3.2v18.9C75.7,175.4,74.3,176.8,72.5,176.8C72.5,176.8,72.5,176.8,72.5,176.8z"/>
<path class="st2" d="M126.2,129.4v69.5c0,1.8,1.4,3.2,3.2,3.2h69.5c1.8,0,3.2-1.4,3.2-3.2c0,0,0,0,0,0v-69.5c0-1.8-1.4-3.2-3.2-3.2
	h-69.5C127.7,126.2,126.2,127.7,126.2,129.4z M173.6,176.8h-18.9c-1.8,0-3.2-1.4-3.2-3.2v-18.9c0-1.8,1.4-3.2,3.2-3.2h18.9
	c1.8,0,3.2,1.4,3.2,3.2v18.9C176.8,175.4,175.3,176.8,173.6,176.8z"/>
<path class="st2" d="M227.4,129.4v69.5c0,1.8,1.4,3.2,3.2,3.2H300c1.8,0,3.2-1.4,3.2-3.2v-69.5c0-1.8-1.4-3.2-3.2-3.2h-69.5
	C228.8,126.2,227.4,127.6,227.4,129.4C227.4,129.4,227.4,129.4,227.4,129.4z M274.8,176.8h-18.9c-1.8,0-3.2-1.4-3.2-3.2v-18.9
	c0-1.8,1.4-3.2,3.2-3.2c0,0,0,0,0,0h18.9c1.8,0,3.2,1.4,3.2,3.2v18.9C277.9,175.4,276.5,176.8,274.8,176.8L274.8,176.8z"/>
<path class="st1" d="M277.9,230.6v69.5c0,1.8-1.4,3.2-3.2,3.2H154.7c-1.8,0-3.2-1.4-3.2-3.2v-69.5c0-1.7,1.4-3.1,3.2-3.1h18.9
	c1.8,0,3.2,1.4,3.2,3.2c0,0,0,0,0,0v44.2c0,1.8,1.4,3.2,3.2,3.2h69.5c1.8,0,3.2-1.4,3.2-3.2v-44.2c0-1.8,1.4-3.2,3.2-3.2h0h18.9
	C276.5,227.4,277.9,228.8,277.9,230.6C277.9,230.5,277.9,230.5,277.9,230.6z"/>
<path class="st1" d="M53.6,227.4h18.9c1.8,0,3.2,1.4,3.2,3.2V300c0,1.8-1.4,3.2-3.2,3.2H53.6c-1.8,0-3.2-1.4-3.2-3.2v-69.5
	C50.4,228.8,51.8,227.4,53.6,227.4z"/>
</svg>
