<svg id="Layer_1" data-name="Layer 1" xmlns="http://www.w3.org/2000/svg" viewBox="0 0 89.02 89.02"><defs><style>.cls-1{fill:#fff;}</style></defs><path class="cls-1" d="M83.86,512.57v22.24a1,1,0,0,1-1,1H76.78a1,1,0,0,1-1-1V520.66a1,1,0,0,0-1-1H52.5a1,1,0,0,0-1,1v14.15a1,1,0,0,1-1,1H44.41a1,1,0,0,1-1-1V512.57a1,1,0,0,1,1-1H82.84A1,1,0,0,1,83.86,512.57Z" transform="translate(-35.3 -511.55)"/><rect class="cls-1" x="72.83" width="8.09" height="24.28" rx="1.02"/><path class="cls-1" d="M35.3,544.94v22.24a1,1,0,0,0,1,1H58.56a1,1,0,0,0,1-1V544.94a1,1,0,0,0-1-1H36.32A1,1,0,0,0,35.3,544.94Zm15.17,15.17H44.41a1,1,0,0,1-1-1V553a1,1,0,0,1,1-1h6.06a1,1,0,0,1,1,1v6.06A1,1,0,0,1,50.47,560.11Z" transform="translate(-35.3 -511.55)"/><path class="cls-1" d="M67.67,544.94v22.24a1,1,0,0,0,1,1H90.93a1,1,0,0,0,1-1V544.94a1,1,0,0,0-1-1H68.69A1,1,0,0,0,67.67,544.94Zm15.17,15.17H76.78a1,1,0,0,1-1-1V553a1,1,0,0,1,1-1h6.06a1,1,0,0,1,1,1v6.06A1,1,0,0,1,82.84,560.11Z" transform="translate(-35.3 -511.55)"/><path class="cls-1" d="M100,544.94v22.24a1,1,0,0,0,1,1H123.3a1,1,0,0,0,1-1V544.94a1,1,0,0,0-1-1H101.06A1,1,0,0,0,100,544.94Zm15.17,15.17h-6.06a1,1,0,0,1-1-1V553a1,1,0,0,1,1-1h6.06a1,1,0,0,1,1,1v6.06A1,1,0,0,1,115.21,560.11Z" transform="translate(-35.3 -511.55)"/><path class="cls-1" d="M116.23,577.31v22.24a1,1,0,0,1-1,1H76.78a1,1,0,0,1-1-1V577.31a1,1,0,0,1,1-1h6.06a1,1,0,0,1,1,1v14.15a1,1,0,0,0,1,1h22.25a1,1,0,0,0,1-1V577.31a1,1,0,0,1,1-1h6.06A1,1,0,0,1,116.23,577.31Z" transform="translate(-35.3 -511.55)"/><rect class="cls-1" x="8.09" y="64.74" width="8.09" height="24.28" rx="1.02"/></svg>